<svg xmlns="http://www.w3.org/2000/svg" width="1254" height="1254" preserveAspectRatio="xMidYMid meet" style="display:block;background:transparent" version="1.1" viewBox="0 0 2048 2048"><defs><linearGradient id="d" x1="1388.55" x2="1232.73" y1="1729.5" y2="1233.5" gradientUnits="userSpaceOnUse"><stop class="stop0" offset="0" stop-color="rgb(52,35,125)" stop-opacity="1"/><stop class="stop1" offset="1" stop-color="rgb(51,56,173)" stop-opacity="1"/></linearGradient><linearGradient id="c" x1="1557.8" x2="1290.39" y1="1601.4" y2="1072" gradientUnits="userSpaceOnUse"><stop class="stop0" offset="0" stop-color="rgb(62,38,241)" stop-opacity="1"/><stop class="stop1" offset="1" stop-color="rgb(23,120,255)" stop-opacity="1"/></linearGradient><linearGradient id="b" x1="1167.06" x2="1068.5" y1="940.734" y2="288.548" gradientUnits="userSpaceOnUse"><stop class="stop0" offset="0" stop-color="rgb(59,38,255)" stop-opacity="1"/><stop class="stop1" offset="1" stop-color="rgb(10,160,255)" stop-opacity="1"/></linearGradient><linearGradient id="a" x1="1037.15" x2="1117.56" y1="821.353" y2="507.815" gradientUnits="userSpaceOnUse"><stop class="stop0" offset="0" stop-color="rgb(49,58,208)" stop-opacity="1"/><stop class="stop1" offset="1" stop-color="rgb(32,105,233)" stop-opacity="1"/></linearGradient>
<linearGradient id="gradRingA" x1="380" y1="760" x2="1500" y2="760" gradientUnits="userSpaceOnUse"><stop offset="0" stop-color="#00F1FD"/><stop offset="0.55" stop-color="#18A8FF"/><stop offset="1" stop-color="#3E26F1"/></linearGradient>
<linearGradient id="gradRingB" x1="430" y1="520" x2="1480" y2="980" gradientUnits="userSpaceOnUse"><stop offset="0" stop-color="#00EAFD"/><stop offset="0.5" stop-color="#1778FF"/><stop offset="1" stop-color="#3E26F1"/></linearGradient>
<linearGradient id="gradRingC" x1="620" y1="1310" x2="1180" y2="1160" gradientUnits="userSpaceOnUse"><stop offset="0" stop-color="#3E26F1"/><stop offset="1" stop-color="#3F2BB1"/></linearGradient>
<linearGradient id="gradHandleDark" x1="1120" y1="1200" x2="1570" y2="1710" gradientUnits="userSpaceOnUse"><stop offset="0" stop-color="#3338AD"/><stop offset="1" stop-color="#34237D"/></linearGradient>
<linearGradient id="gradHandleBlue" x1="1190" y1="1110" x2="1680" y2="1590" gradientUnits="userSpaceOnUse"><stop offset="0" stop-color="#1778FF"/><stop offset="0.55" stop-color="#2E5BFF"/><stop offset="1" stop-color="#3E26F1"/></linearGradient>
<linearGradient id="gradMagenta" x1="1620" y1="1490" x2="1810" y2="1660" gradientUnits="userSpaceOnUse"><stop offset="0" stop-color="#D72396"/><stop offset="1" stop-color="#FF2BAA"/></linearGradient>
</defs><path fill="url(#gradRingA)" d="M778.905 517.1c7.697 19.078 17.371 39.243 24.177 58.28-21.451 11.648-37.421 20.37-57.168 34.828a351.26 351.26 0 0 0-127.711 182.572 347.27 347.27 0 0 0 29.136 267.03c29.637 54.14 66.43 93.38 117.636 127.63-9.966 18.21-21.799 35.35-32.281 53.22-65.61-44.69-114.92-99.63-149.513-171.47a410.94 410.94 0 0 1-17.1-314.995 413 413 0 0 1 212.824-237.095Z"/><path fill="url(#gradRingB)" d="M778.905 517.1a402.7 402.7 0 0 1 307.015-17.308 407.9 407.9 0 0 1 229.44 207.27 413.8 413.8 0 0 1 40.7 183.822c-20.01-.889-41.03-.357-61.22-.52-1.51-58.258-10.04-102.284-35.28-155.378a343.48 343.48 0 0 0-194.59-175.411c-87.557-31.007-178.586-23.793-261.888 15.805-6.806-19.037-16.48-39.202-24.177-58.28Z"/><path fill="url(#gradRingC)" d="M764.975 1187.44c35.302 22.77 66.182 35.51 106.268 46.86 3.48 0 13.814 2.35 17.677 3.14 71.375 14.56 140.52 3.58 206.85-26.06 3.24 3.53 4.34 4.53 8.18 7.4 13.4 12.98 25.79 27.64 39.13 40.75-11.85 7.78-32.92 14.84-46.23 20.28-4.36 1.79-12.07 4.21-15.88 6.4l-1.86.34c-10.48 1.97-22.42 6.6-32.92 9.25-56.178 14.18-115.482 14.36-172.194 3.05-8.946-1.78-24.617-4.66-32.735-8.24-32.971-8.44-80.709-30.79-108.567-49.95 10.482-17.87 22.315-35.01 32.281-53.22Z"/><path fill="url(#gradRingC)" d="M764.975 1187.44c35.302 22.77 66.182 35.51 106.268 46.86-13.746 2.98-25.82-14.67-37.099.05-10.357 13.51-13.529 28.72-18.801 44.61 5.324 5.29 23.079 7.63 27.229 10.96l-1.311.69c-32.971-8.44-80.709-30.79-108.567-49.95 10.482-17.87 22.315-35.01 32.281-53.22Z"/><path fill="url(#gradRingC)" d="M1356.06 890.884c-.78 81.243-24.07 163.616-69.01 231.606-12.9-12.43-28.11-27.89-41.41-39.47-.59-1-1.29-2.2-2.12-3.59.58-7.89 10.27-21.17 13.84-28.62 25.68-53.619 36.65-101.411 37.48-160.446 20.19.163 41.21-.369 61.22.52Z"/><path fill="url(#gradRingB)" d="M1170.78 1163.22c4.52 4.7 7.99 8.49 13.16 12.5a3251 3251 0 0 1 32.4 32.99c-8.32 6.11-36.55 29.55-47.47 36.98-.2.83-.4 1.66-.59 2.5-12.31-10.94-33.96-34.45-46.24-46.98 4.11-3.75 14.05-10.65 18.86-14.23a488 488 0 0 0 29.88-23.76Z"/><path fill="url(#gradRingB)" d="M712.865 365.233c135.37-63.973 290.565-71.759 431.655-21.654 141.19 51.127 256.21 156.358 319.67 292.451 28.64 61.022 54.19 149.879 53.92 217.717-.95 12.361.8 24.326-.04 37.048-8.79-.002-54.68.431-59.97-.918l-1.17-2.109a530.7 530.7 0 0 0-47.47-217.697c-56.1-123.16-159.21-218.703-286.28-265.263-127.485-47.091-262.755-36.807-385.28 19.658-4.01-13.091-19.006-44.638-25.035-59.233Z"/><path fill="url(#gradRingB)" d="M746.052 442.101a482.55 482.55 0 0 1 365.038-20.593 487.67 487.67 0 0 1 277.11 249.136c34.81 72.591 48.22 139.874 49.22 219.822-20.07.554-41.12-.529-61.47-.286 1.69-58.909-15.03-130.027-39.25-183.345a429.17 429.17 0 0 0-238.35-223.697c-108.611-40.491-222.975-31.641-327.435 16.244-8.403-19.045-16.123-38.383-24.863-57.281Z"/><path fill="url(#gradRingC)" d="M1168.28 1248.19c.19-.84.39-1.67.59-2.5 10.92-7.43 39.15-30.87 47.47-36.98 39.07 38.52 77.87 78.94 116.43 118.11l175.69 177.49 107.05 107.61c14.32 14.41 39.57 38.21 51.72 52.48-14.21 14.97-28.94 29.05-43.35 43.74l-336.68-340.27c-35.42-36.31-71.87-71.68-107.37-107.91-3.82-3.9-7.88-7.77-11.55-11.77Z"/><path fill="url(#gradRingA)" d="M712.865 365.233c6.029 14.595 21.025 46.142 25.035 59.233-30.796 15.267-53.181 27.644-81.445 47.903a526.3 526.3 0 0 0-189.231 259.084c-24.505 72.824-27.674 120.388-25.996 195.757l-.351 1.708c-.44 2.233-.411 2.513-.114 4.847-1.446-2.437-1.845-32.787-1.763-37.773-12.958 2.465-46.326-6.555-56.882.333-4.916 9.837 1.472 58.157 2.724 71.074.668 6.887 3.94 20.539 2.464 26.81-3.649-13.164-6.665-44.16-7.611-58.133a578.4 578.4 0 0 1 37.363-251.258c52.346-136.287 161.509-259.978 295.807-319.585Z"/><path fill="url(#gradHandleBlue)" d="M1190.1 1144.64c11.54-6.12 35.87-42.26 41.25-44.52l4.27 2.42c12.51 14.12 29.45 29.93 42.93 43.57l99.72 100.3c93.4 95.48 187.27 190.5 281.62 285.05l-43.7 44.32q-68.685-69.015-136.65-138.72z"/><path fill="url(#gradHandleDark)" d="m1143.08 1259.53 257.12 261.02c43.83 44.34 92.85 91.9 135.14 137.17-14.27 14.74-29.05 28.97-43.33 43.71-49.29-46.68-99.16-99.86-147.47-148.38-88.56-88.25-176.42-177.2-263.57-266.84 3.81-2.19 11.52-4.61 15.88-6.4 13.31-5.44 34.38-12.5 46.23-20.28Z"/><path fill="url(#gradRingA)" d="M387.306 994.209c1.476-6.271-1.796-19.923-2.464-26.81-1.252-12.917-7.64-61.237-2.724-71.074 10.556-6.888 43.924 2.132 56.882-.333-.082 4.986.317 35.336 1.763 37.773-.297-2.334-.326-2.614.114-4.847l.351-1.708c1.905 7.368 2.581 23.287 3.711 31.856a499 499 0 0 0 11.471 57.864 525.86 525.86 0 0 0 226.858 311.94 4151 4151 0 0 1-31.548 54.74 672 672 0 0 1-62.965-45.04 581.94 581.94 0 0 1-183.777-272.62c-5.736-17.74-15.856-53.25-17.672-71.741Z"/><path fill="url(#gradRingA)" d="M746.052 442.101c8.74 18.898 16.46 38.236 24.863 57.281a433.96 433.96 0 0 0-224.341 251.281 414.9 414.9 0 0 0-24.345 145.752c.412 18.215 2.326 33.358 3.848 51.2l-.605 6.528c-3.074-17.496-7.182-56.266-4.481-73.772-2.727.861-2.441 1.732-5.313 2.726l-3.606-2.174c-10.227-6.167-16.76-2.553-27.292-4.858-12.202-2.67-14.069-1.237-22.345 7.591-1.544 14.721 3.571 47.511.888 55.873-8.171-67.514 2.616-147.192 25.413-211.099 44.321-124.243 136.798-230.549 257.316-286.329Z"/><path fill="url(#gradRingA)" d="M462.435 883.656c8.276-8.828 10.143-10.261 22.345-7.591 10.532 2.305 17.065-1.309 27.292 4.858l3.606 2.174c2.872-.994 2.586-1.865 5.313-2.726-2.701 17.506 1.407 56.276 4.481 73.772l.605-6.528c3.723 21.598 7.57 43.376 13.821 64.405 27.184 91.45 85.526 177.01 163.789 232.18a618 618 0 0 0 19.132 13c-9.845 18.48-21.904 36.38-31.271 54.53-123.506-77.61-216.985-226.2-228.225-372.201 2.683-8.362-2.432-41.152-.888-55.873Z"/><path fill="url(#gradRingC)" d="M1394.63 1136.26c15.33 14.46 31.31 31.35 46.2 46.47 32.81 31.57 65.15 66.06 97.46 98.44l187.64 187.37c-14.8 13.52-31.06 29.8-45.11 44.32l-277.11-278.85c-14.21-13.63-28.91-28.69-42.95-42.63 12.34-18.44 23.26-35.67 33.87-55.12Z"/><path fill="url(#gradRingC)" d="M1394.63 1136.26c15.33 14.46 31.31 31.35 46.2 46.47-7.85 11-28.93 43.98-37.12 51.28-14.21-13.63-28.91-28.69-42.95-42.63 12.34-18.44 23.26-35.67 33.87-55.12Z"/><path fill="url(#gradRingC)" d="M722.819 1257.2c18.926 11.45 35.727 21.39 55.874 30.68a412.05 412.05 0 0 0 273.487 26.07l22.58-5.74 46.39 47.77c-13.96 6.63-42.05 14.76-57.29 18.49a476.26 476.26 0 0 1-272.732-14.36c-22.611-8.04-81.25-34.14-99.58-48.38 9.367-18.15 21.426-36.05 31.271-54.53Z m653.131-367.02c20.35-.243 41.4.84 61.47.286-2.77 112.494-29.1 196.424-92.15 289.254a1290 1290 0 0 1-43.13-44.1c47.13-75.82 72.89-155.685 73.81-245.44Z"/><path fill="url(#gradRingC)" d="M1134.95 1371.52c9.95 7.8 37.56 37.2 46.72 47.89-16.82 8.49-34.88 14.94-52.73 20.91a551.6 551.6 0 0 1-216.429 28.26c-11.369-.77-36.304-2.76-47.055-5.63 6.197-3.07 18.958 2.37 29.009 1.5l-1.293-2.57c8.618-18.64 6.508-29.51 4.94-49.78-.833-10.77-13.564-3.24-21.396-10.42 17.494 1.73 33.814 3.86 51.457 4.78a474.9 474.9 0 0 0 165.197-20.27c14.62-4.48 27.39-9.59 41.58-14.67Z m383.16-517.773c2.26 17.286.85 43.86.26 61.543-3.13 93.32-25.04 166.91-67 249.32-15.46-15.52-31.59-31.31-46.58-47.23 34.15-74.84 52.85-146.586 52.14-229.612l1.17 2.109c5.29 1.349 51.18.916 59.97.918.84-12.722-.91-24.687.04-37.048Z"/><path fill="url(#gradRingC)" d="M683.268 1328.87c45.82 27.12 85.805 46.17 137.598 60.96 16.76 4.78 42.523 7.77 55.85 11.85 7.832 7.18 20.563-.35 21.396 10.42 1.568 20.27 3.678 31.14-4.94 49.78l1.293 2.57c-10.051.87-22.812-4.57-29.009-1.5-5.821-.02-26.807-4.49-33.126-5.87-65.363-14.21-123.471-39.23-180.61-73.47a4151 4151 0 0 0 31.548-54.74Z"/><path fill="url(#gradMagenta)" d="M1672.54 1544.87c28.22 27.83 62.93 62.46 89.76 91.14l-44.37 45.84c-9.64-8.67-23.01-23.24-32.42-32.89a3365 3365 0 0 1-57.37-59.69c14.24-13.32 30.21-30.42 44.4-44.4Z m64.87-64.15c4.99 1.83 53.27 51.26 59.72 57.72-14.25 15.16-29.62 29.99-44.35 44.79-7.01-3.61-50.37-49.35-59.16-58.13 14.7-14.7 29.29-29.49 43.79-44.38Z"/><path fill="url(#gradRingC)" d="M1549.1 1669.92c5.16 3.86 14.82 13.83 19.59 18.59a3383 3383 0 0 1 38.02 38.69c-13.22 14.63-30.26 30.62-44.29 45.11-3.71-1.26-50.43-50.04-57.53-57.25 14.36-15.38 29.78-29.75 44.21-45.14Z"/></svg>